<svg id="download-on-the-app-store-apple-logo-svgrepo-com" xmlns="http://www.w3.org/2000/svg" width="228.358" height="65.515" viewBox="0 0 228.358 65.515">
  <path id="Path_2302" data-name="Path 2302" d="M231.92,62.509a6.568,6.568,0,0,1-6.576,6.567H10.146a6.577,6.577,0,0,1-6.584-6.567V10.137a6.585,6.585,0,0,1,6.584-6.576h215.2a6.575,6.575,0,0,1,6.576,6.576l0,52.372Z" transform="translate(-3.562 -3.561)" fill="#fff"/>
  <path id="Path_2304" data-name="Path 2304" d="M231.92,62.509a6.568,6.568,0,0,1-6.576,6.567H10.146a6.577,6.577,0,0,1-6.584-6.567V10.137a6.585,6.585,0,0,1,6.584-6.576h215.2a6.575,6.575,0,0,1,6.576,6.576l0,52.372Z" transform="translate(-3.562 -3.561)"/>
  <path id="Path_2305" data-name="Path 2305" d="M80.929,48.138a9.939,9.939,0,0,1,4.736-8.34,10.184,10.184,0,0,0-8.02-4.335c-3.374-.355-6.646,2.018-8.365,2.018-1.753,0-4.4-1.984-7.252-1.926a10.678,10.678,0,0,0-8.987,5.48c-3.887,6.727-.988,16.612,2.736,22.049,1.863,2.665,4.039,5.636,6.888,5.532,2.787-.113,3.828-1.775,7.192-1.775,3.333,0,4.31,1.775,7.216,1.708,2.991-.046,4.874-2.675,6.672-5.362A21.977,21.977,0,0,0,86.8,56.976,9.617,9.617,0,0,1,80.929,48.138ZM75.441,31.886a9.782,9.782,0,0,0,2.24-7.011,9.97,9.97,0,0,0-6.446,3.333,9.309,9.309,0,0,0-2.3,6.752A8.235,8.235,0,0,0,75.441,31.886Z" transform="translate(-30.782 -15.741)" fill="#fff"/>
  <g id="Group_5538" data-name="Group 5538" transform="translate(71.247 29.337)">
    <path id="Path_2307" data-name="Path 2307" d="M189.081,95.173h-3.9l-2.134-6.7h-7.416l-2.032,6.7h-3.792l7.349-22.819H181.7l7.382,22.819Zm-6.672-9.515L180.48,79.7q-.306-.913-1.151-4.3h-.069q-.34,1.456-1.084,4.3l-1.9,5.959Zm25.535,1.085a9.316,9.316,0,0,1-2.281,6.634,6.689,6.689,0,0,1-5.073,2.167,5.079,5.079,0,0,1-4.7-2.334v8.633h-3.657V84.127q0-2.636-.135-5.408h3.216l.2,2.608h.069A6.506,6.506,0,0,1,206,80.68,9.1,9.1,0,0,1,207.945,86.743Zm-3.725.134a6.782,6.782,0,0,0-1.084-3.963,3.747,3.747,0,0,0-3.183-1.624,3.8,3.8,0,0,0-2.454.9,4.159,4.159,0,0,0-1.439,2.354,4.771,4.771,0,0,0-.17,1.113V88.4a4.4,4.4,0,0,0,1.1,3.032,3.656,3.656,0,0,0,2.861,1.236,3.748,3.748,0,0,0,3.216-1.591A7,7,0,0,0,204.219,86.877Zm22.655-.134a9.316,9.316,0,0,1-2.281,6.634,6.693,6.693,0,0,1-5.075,2.167,5.079,5.079,0,0,1-4.7-2.334v8.633h-3.657V84.127q0-2.636-.135-5.408h3.216l.2,2.608h.069a6.508,6.508,0,0,1,10.414-.646A9.106,9.106,0,0,1,226.875,86.743Zm-3.727.134a6.783,6.783,0,0,0-1.086-3.963,3.741,3.741,0,0,0-3.18-1.624,3.819,3.819,0,0,0-2.458.9,4.157,4.157,0,0,0-1.437,2.354,4.882,4.882,0,0,0-.172,1.113V88.4a4.416,4.416,0,0,0,1.1,3.032,3.663,3.663,0,0,0,2.864,1.236A3.744,3.744,0,0,0,222,91.076,7,7,0,0,0,223.148,86.877Zm24.892,1.895a6.1,6.1,0,0,1-2.029,4.741,9,9,0,0,1-6.217,2,10.855,10.855,0,0,1-5.91-1.421l.846-3.047a10.175,10.175,0,0,0,5.283,1.423,4.985,4.985,0,0,0,3.216-.931,3.041,3.041,0,0,0,1.154-2.486,3.186,3.186,0,0,0-.95-2.337,8.81,8.81,0,0,0-3.149-1.759q-5.994-2.235-6-6.536a5.771,5.771,0,0,1,2.116-4.6,8.371,8.371,0,0,1,5.605-1.8,11.079,11.079,0,0,1,5.181,1.084l-.918,2.98a9.061,9.061,0,0,0-4.386-1.049,4.46,4.46,0,0,0-3.026.948,2.713,2.713,0,0,0-.918,2.068,2.794,2.794,0,0,0,1.051,2.234,11.844,11.844,0,0,0,3.317,1.759,11.247,11.247,0,0,1,4.334,2.774A5.782,5.782,0,0,1,248.04,88.772Zm12.121-7.31H256.13v7.989q0,3.048,2.134,3.045a6.425,6.425,0,0,0,1.624-.17l.1,2.776a8.286,8.286,0,0,1-2.844.4,4.383,4.383,0,0,1-3.387-1.322q-1.217-1.322-1.219-4.436V81.455h-2.4V78.712h2.4V75.7l3.592-1.084v4.1h4.031Zm18.15,5.348a9.025,9.025,0,0,1-2.168,6.23,7.729,7.729,0,0,1-6.027,2.505,7.368,7.368,0,0,1-5.775-2.4,8.751,8.751,0,0,1-2.151-6.06,8.951,8.951,0,0,1,2.218-6.262,7.688,7.688,0,0,1,5.979-2.438,7.522,7.522,0,0,1,5.823,2.4A8.637,8.637,0,0,1,278.31,86.81Zm-3.791.084a7.366,7.366,0,0,0-.979-3.882,3.62,3.62,0,0,0-3.286-1.96,3.672,3.672,0,0,0-3.353,1.96,7.489,7.489,0,0,0-.981,3.951,7.345,7.345,0,0,0,.981,3.884,3.75,3.75,0,0,0,6.608-.033A7.4,7.4,0,0,0,274.52,86.894ZM290.2,81.934a6.367,6.367,0,0,0-1.153-.1,3.451,3.451,0,0,0-2.981,1.457,5.489,5.489,0,0,0-.912,3.249v8.634H281.5V83.9q0-2.591-.106-5.18h3.185l.134,3.148h.1a5.644,5.644,0,0,1,1.828-2.608,4.423,4.423,0,0,1,2.643-.881,5.87,5.87,0,0,1,.914.067Zm16.354,4.234a8.574,8.574,0,0,1-.134,1.658h-10.97a4.771,4.771,0,0,0,1.592,3.728,5.443,5.443,0,0,0,3.588,1.149,12.136,12.136,0,0,0,4.439-.777l.573,2.536a13.726,13.726,0,0,1-5.518,1.017,8,8,0,0,1-6.013-2.25,8.317,8.317,0,0,1-2.183-6.043,9.424,9.424,0,0,1,2.034-6.193,7.009,7.009,0,0,1,5.754-2.639,6.134,6.134,0,0,1,5.387,2.639A8.879,8.879,0,0,1,306.555,86.167Zm-3.487-.948a4.948,4.948,0,0,0-.71-2.81,3.193,3.193,0,0,0-2.912-1.526,3.467,3.467,0,0,0-2.911,1.49,5.46,5.46,0,0,0-1.082,2.843Z" transform="translate(-169.812 -72.016)" fill="#fff"/>
  </g>
  <g id="Group_5539" data-name="Group 5539" transform="translate(73.388 9.71)">
    <path id="Path_2308" data-name="Path 2308" d="M177.436,38.116a23.356,23.356,0,0,1-2.629-.134V26.95a19.911,19.911,0,0,1,3.1-.233c4.194,0,6.125,2.063,6.125,5.425C184.027,36.02,181.746,38.116,177.436,38.116Zm.614-9.985a7.337,7.337,0,0,0-1.448.117v8.387a9.492,9.492,0,0,0,1.214.05c2.748,0,4.312-1.564,4.312-4.493C182.128,29.58,180.713,28.131,178.05,28.131Zm12,10.069a3.849,3.849,0,0,1-3.9-4.16,3.939,3.939,0,0,1,4.029-4.276,3.819,3.819,0,0,1,3.9,4.144,3.962,3.962,0,0,1-4.029,4.292Zm.069-7.123c-1.3,0-2.13,1.214-2.13,2.912,0,1.665.849,2.879,2.113,2.879s2.113-1.3,2.113-2.913C192.21,32.308,191.378,31.077,190.114,31.077Zm17.438-1.147-2.53,8.087h-1.648L202.326,34.5a26.63,26.63,0,0,1-.65-2.611h-.034a17.506,17.506,0,0,1-.648,2.611l-1.115,3.512h-1.665l-2.381-8.087h1.847l.916,3.844q.324,1.373.549,2.6h.034c.132-.681.348-1.531.665-2.579l1.149-3.86h1.465l1.1,3.777c.266.916.482,1.814.65,2.663h.048a23.253,23.253,0,0,1,.549-2.663l.983-3.777,1.765,0Zm9.313,8.087h-1.8V33.373c0-1.43-.549-2.147-1.631-2.147a1.867,1.867,0,0,0-1.8,1.98v4.81h-1.8V32.241c0-.715-.017-1.481-.067-2.313h1.581l.084,1.248h.05a2.906,2.906,0,0,1,2.564-1.413c1.7,0,2.813,1.3,2.813,3.411Zm4.957,0h-1.8v-11.8h1.8Zm6.554.183a3.85,3.85,0,0,1-3.9-4.16,3.938,3.938,0,0,1,4.027-4.276,3.818,3.818,0,0,1,3.9,4.144,3.961,3.961,0,0,1-4.027,4.292Zm.067-7.123c-1.3,0-2.13,1.214-2.13,2.912,0,1.665.851,2.879,2.111,2.879s2.113-1.3,2.113-2.913c0-1.646-.828-2.877-2.094-2.877Zm11.047,6.939-.13-.931h-.048a2.762,2.762,0,0,1-2.365,1.115,2.351,2.351,0,0,1-2.478-2.38c0-2,1.731-3.028,4.727-3.028v-.149c0-1.065-.564-1.6-1.679-1.6a3.786,3.786,0,0,0-2.113.6l-.365-1.181a5.171,5.171,0,0,1,2.777-.7c2.113,0,3.18,1.115,3.18,3.345v2.978a12.209,12.209,0,0,0,.117,1.931l-1.621,0Zm-.247-4.028c-2,0-3,.484-3,1.631a1.146,1.146,0,0,0,1.233,1.264,1.721,1.721,0,0,0,1.765-1.646Zm10.48,4.028-.084-1.3h-.05a2.712,2.712,0,0,1-2.6,1.481c-1.95,0-3.394-1.715-3.394-4.127,0-2.529,1.5-4.311,3.542-4.311a2.431,2.431,0,0,1,2.281,1.1h.036V26.219h1.8v9.618c0,.782.019,1.514.067,2.179Zm-.266-4.758a1.956,1.956,0,0,0-1.894-2.1c-1.333,0-2.147,1.181-2.147,2.845,0,1.631.846,2.747,2.111,2.747a2.018,2.018,0,0,0,1.93-2.147V33.258ZM262.663,38.2a3.849,3.849,0,0,1-3.893-4.16,3.938,3.938,0,0,1,4.027-4.276,3.818,3.818,0,0,1,3.9,4.144,3.96,3.96,0,0,1-4.029,4.292Zm.067-7.123c-1.3,0-2.128,1.214-2.128,2.912,0,1.665.849,2.879,2.111,2.879s2.113-1.3,2.113-2.913C264.829,32.308,264,31.077,262.73,31.077Zm13.629,6.939h-1.8V33.373c0-1.43-.549-2.147-1.631-2.147a1.865,1.865,0,0,0-1.8,1.98v4.81h-1.8V32.241c0-.715-.017-1.481-.067-2.313h1.581l.084,1.248h.05a2.9,2.9,0,0,1,2.562-1.415c1.7,0,2.815,1.3,2.815,3.411Zm12.093-6.739h-1.978V35.2c0,1,.346,1.5,1.046,1.5a3.541,3.541,0,0,0,.8-.084l.05,1.365a3.983,3.983,0,0,1-1.394.2c-1.417,0-2.264-.782-2.264-2.829V31.278h-1.18V29.93h1.18V28.448l1.765-.533v2.013h1.978Zm9.516,6.739h-1.8V33.407c0-1.447-.547-2.179-1.631-2.179a1.763,1.763,0,0,0-1.8,1.914v4.875h-1.8v-11.8h1.8v4.858h.036a2.727,2.727,0,0,1,2.432-1.315c1.712,0,2.758,1.331,2.758,3.445Zm9.749-3.611h-5.394a2.321,2.321,0,0,0,2.549,2.4,6.075,6.075,0,0,0,2.18-.382l.28,1.248a6.754,6.754,0,0,1-2.713.5,3.754,3.754,0,0,1-4.027-4.076c0-2.479,1.533-4.343,3.825-4.343,2.067,0,3.363,1.531,3.363,3.844a3.459,3.459,0,0,1-.062.814Zm-1.648-1.281c0-1.248-.629-2.13-1.779-2.13a2.132,2.132,0,0,0-1.966,2.13h3.744Z" transform="translate(-174.806 -26.219)" fill="#fff"/>
  </g>
</svg>
