<svg xmlns="http://www.w3.org/2000/svg" width="82.551" height="73.7" viewBox="0 0 82.551 73.7">
  <path id="Icon_awesome-shopping-cart" data-name="Icon awesome-shopping-cart" d="M72.926,41.608l6.528-28.722a3.314,3.314,0,0,0-3.232-4.049H21.984L20.719,2.65A3.314,3.314,0,0,0,17.472,0H3.314A3.314,3.314,0,0,0,0,3.314V5.523A3.314,3.314,0,0,0,3.314,8.838h9.65l9.7,47.424a7.734,7.734,0,1,0,9.258,1.183H60.872a7.731,7.731,0,1,0,8.782-1.437l.762-3.352a3.314,3.314,0,0,0-3.232-4.049H30.119l-.9-4.419H69.695A3.314,3.314,0,0,0,72.926,41.608Z" transform="translate(1.5 1.5)" fill="none" stroke="#0e203f" stroke-width="3"/>
</svg>
