<svg xmlns="http://www.w3.org/2000/svg" width="92.098" height="65.368" viewBox="0 0 92.098 65.368">
  <path id="Icon_awesome-user-friends" data-name="Icon awesome-user-friends" d="M26.729,33.434A15.592,15.592,0,1,0,11.137,17.842,15.584,15.584,0,0,0,26.729,33.434Zm10.692,4.455H36.266a21.527,21.527,0,0,1-19.072,0H16.038A16.042,16.042,0,0,0,0,53.927v4.009a6.684,6.684,0,0,0,6.682,6.682H46.776a6.684,6.684,0,0,0,6.682-6.682V53.927A16.042,16.042,0,0,0,37.421,37.889Zm29.4-4.455A13.365,13.365,0,1,0,53.459,20.07,13.368,13.368,0,0,0,66.823,33.434Zm6.682,4.455h-.529a17.555,17.555,0,0,1-12.307,0h-.529a15.463,15.463,0,0,0-7.754,2.144,20.373,20.373,0,0,1,5.527,13.894v5.346c0,.306-.07.6-.084.891H82.415A6.684,6.684,0,0,0,89.1,53.481,15.584,15.584,0,0,0,73.506,37.889Z" transform="translate(1.5 -0.75)" fill="none" stroke="#0e203f" stroke-width="3"/>
</svg>
