<svg xmlns="http://www.w3.org/2000/svg" width="79.906" height="56.834" viewBox="0 0 79.906 56.834">
  <path id="Icon_awesome-truck-moving" data-name="Icon awesome-truck-moving" d="M74.659,26.92l-7.03-7.03a7.693,7.693,0,0,0-5.443-2.247H57.679V6.1A3.841,3.841,0,0,0,53.834,2.25H3.845A3.841,3.841,0,0,0,0,6.1V46.471a9.589,9.589,0,0,0,17.3,5.72,9.589,9.589,0,0,0,17.3-5.72,10.128,10.128,0,0,0-.192-1.923H54.026a9.235,9.235,0,0,0-.192,1.923,9.613,9.613,0,1,0,19.226,0,10.128,10.128,0,0,0-.192-1.923h2.115a1.928,1.928,0,0,0,1.923-1.923V32.351A7.665,7.665,0,0,0,74.659,26.92ZM9.613,50.316a3.845,3.845,0,1,1,3.845-3.845A3.857,3.857,0,0,1,9.613,50.316Zm15.381,0a3.845,3.845,0,1,1,3.845-3.845A3.857,3.857,0,0,1,24.994,50.316ZM57.679,23.4h4.506a1.909,1.909,0,0,1,1.358.565l5.2,5.2H57.679Zm5.768,26.917a3.845,3.845,0,1,1,3.845-3.845A3.857,3.857,0,0,1,63.447,50.316Z" transform="translate(1.5 -0.75)" fill="none" stroke="#0e203f" stroke-width="3"/>
</svg>
